P2
#.
64 64
255
 27  29  32  32  34  32  38  41  40  31  24  19  21  28  24  21  22  24  28  35  39  45  45  57  64  68  66  61  48  55  84  92  73  57  77  79  50  40  48  65  82 103 114  99  94  99  93  79  77  84  87  74  72  60  43  62  82 100 111 100  98  93  83  74
 31  34  35  35  37  34  37  41  44  41  33  27  23  28  29  32  34  37  39  45  52  57  56  59  71  75  73  60  49  62  85  95  81  61  72  89  66  47  42  50  67  88 111 107  97 102 102  91  93  99  98  90  83  63  46  57  75  89 107 108  95  82  71  68
 35  40  39  39  40  40  37  42  46  50  45  35  27  35  35  35  44  50  50  53  62  67  66  64  77  81  77  61  49  68  90 100  87  68  76  89  82  67  50  42  52  72  93 105 102 107 114 106 106 110 104  98  80  60  50  58  79  96 107  98  86  77  77  77
 41  45  46  44  45  43  39  45  48  51  49  40  31  38  43  38  41  52  57  59  66  74  72  69  79  82  80  61  49  69 101 108  94  74  84  90  88  79  64  48  44  56  68  79  84  93  98  96  94  96  87  78  70  60  55  62  87 107 103  90  83  86  92  89
 52  57  57  50  48  46  41  42  45  48  47  40  35  43  50  44  38  48  55  62  68  77  76  72  83  89  82  61  48  64  90 108  94  84  95 106 104  89  77  61  46  45  51  58  65  71  73  72  71  72  66  60  64  64  61  68  90 110 111 103  98  97  93  86
 50  57  63  56  55  53  49  44  47  50  48  41  38  47  53  44  39  48  56  62  70  80  80  74  81  92  90  69  52  53  67  88 100  99 108 119 110 105  96  78  59  45  44  47  51  54  57  56  56  56  55  54  64  66  64  72  91 107 105  97  93  90  85  78
 47  53  66  63  63  61  55  50  52  55  49  41  40  50  51  43  42  49  56  64  69  81  85  82  82  88  89  66  63  60  57  77  97 104 112 123 112 115 107  93  73  55  46  49  52  50  51  51  52  51  52  53  61  67  69  83  90 100 106  91  80  75  72  66
 45  49  61  58  65  65  62  59  61  59  51  43  40  52  53  45  43  53  60  64  72  79  88  94  90  81  76  68  79  76  65  82  94 100 106 122 123 109 103  96  84  69  55  54  62  62  66  64  59  54  52  56  60  70  80  99 101 103 101  89  76  66  60  57
 41  45  53  52  57  57  60  65  69  63  59  47  41  50  55  45  43  52  67  66  70  76  84  97  95  86  73  73  90  91  70  75  89  94  99 115 122 110 108 107 102  87  74  70  84  85  92  89  80  62  52  56  64  76  89 106 115 110  93  79  70  64  63  64
 37  42  43  45  46  49  53  58  66  68  65  50  45  54  55  45  46  54  63  72  70  71  82  94  99  92  75  75  93  99  87  76  80  84  91 104 114 116 118 116 113 103  94  92 101  99 103  96  82  70  56  53  66  82  93 100 106 105  89  77  72  68  71  75
 39  40  48  52  50  56  62  63  62  73  71  51  48  56  50  46  53  62  62  72  77  74  82  85  94  91  80  79  87  95 102  94  85  93  92 100 108 108 113 117 108 105 103  99  98  94  92  85  78  69  57  54  66  87  98 103 110 101  85  77  74  75  80  84
 38  45  56  59  61  64  74  77  72  77  71  51  53  55  48  49  64  74  65  72  85  83  84  85  93  95  91  90  94 102 114 114  99 101 105 106 103 101 114 125 121 115 115 106 100 100  90  79  71  66  59  59  68  84  96 106 113  99  90  88  85  84  80  77
 36  39  46  56  60  63  73  80  79  79  69  55  57  53  52  50  64  79  69  72  87  89  91  92  91  84  78  78  84  92 104 117 106 101  97  98  92  90  96 106 121 124 115 101 105 101  86  79  76  72  61  62  70  83  98 110 110 100  90  91  89  81  74  70
 42  42  41  48  49  52  58  67  68  74  79  66  58  59  60  54  66  81  79  76  85  88  91  95  77  63  56  52  55  63  78  94  87  80  72  73  78  79  83  90  99 113 109 108 104  95  88  88  85  69  61  69  80  79  87 102  99  96  83  79  78  76  70  65
 50  53  52  47  47  50  52  55  65  79  77  66  60  63  65  62  67  78  86  86  86  84  85  80  60  45  41  40  41  47  57  75  73  68  80  80  82  83  89  96 103 117 125 121 113 108 102  99  84  66  64  80  89  78  81  95  86  87  85  76  73  71  69  70
 64  66  68  64  61  67  70  67  68  81  76  69  62  60  61  63  66  73  79  84  81  78  72  61  45  39  43  47  54  55  49  56  60  72  84  95 101 108 115 117 119 125 122 115 105 103 100  93  79  64  69  86  86  76  81  90  76  76  86  82  78  74  77  79
 68  68  69  75  75  81  84  79  79  80  80  69  66  61  56  57  64  69  74  76  73  66  55  42  38  49  61  67  75  76  67  62  70  84  94  99 114 118 113 113 116 121 115 108  89  90  91  80  77  71  74  83  80  75  79  87  71  78  90  85  79  82  82  81
 58  57  62  73  85  85  77  74  78  73  78  67  63  60  53  53  61  66  69  69  59  50  39  34  43  62  72  77  84  93  83  86  92 101 111 112 115 104  96 102  95 106 111 107  88  83  99  94  87  76  77  90  82  67  73  83  67  71  87  84  75  82  83  80
 45  52  66  81  84  71  63  67  70  64  76  73  63  56  49  49  57  62  61  53  44  36  34  38  52  70  80  85  91  99  96 103 109 109 102 103  99  84  86  96  88 101 107  95  80  85 107 104  85  75  79  86  74  66  69  79  68  62  77  82  74  75  80  78
 46  56  68  87  81  66  49  64  60  59  70  72  65  58  47  43  51  58  51  41  35  34  41  55  67  78  84  87  87  90  95 104 116 106  97  93  81  71  83  94  84  93 100  86  70  83 106 106  92  78  73  75  74  68  60  64  64  55  65  78  72  67  78  78
 44  57  71  84  72  57  40  56  55  45  58  63  58  49  41  37  47  53  40  35  34  42  58  68  72  74  73  74  74  83  91 100 109 106 100  87  71  65  80  92  78  79  83  70  64  85 104  97  93  87  78  72  74  68  51  45  45  46  49  61  58  63  75  73
 46  53  59  68  67  49  31  45  49  34  42  57  47  35  33  33  44  43  34  34  44  57  62  57  53  54  55  64  76  85  91  99  99 107 103  87  70  64  78  92  77  68  67  61  71  93 101  97  87  82  78  73  67  56  48  49  42  40  40  43  47  62  70  67
 35  40  48  50  55  46  26  29  29  27  33  44  33  29  30  32  40  35  34  39  47  45  42  43  48  52  54  55  61  72  81  88  91  98  91  82  66  64  79  91  75  62  60  63  78  88  88  91  83  82  77  71  71  64  62  67  60  47  39  39  42  50  54  55
 25  29  34  35  33  25  23  23  24  25  26  28  28  29  31  31  33  33  35  38  38  45  54  62  67  68  69  68  60  62  69  74  83  89  89  79  69  61  71  82  69  61  60  63  72  74  79  85  77  78  78  72  74  72  76  76  70  57  43  40  38  40  45  52
 18  18  20  23  21  21  23  24  26  27  28  30  30  31  33  34  33  33  36  40  52  65  72  78  78  80  83  81  70  68  75  75  81  88  94  82  66  59  67  74  62  59  60  62  74  74  79  84  73  69  71  78  77  76  79  71  61  57  56  50  39  39  41  47
 18  18  18  18  20  22  24  25  26  28  32  32  32  33  33  36  36  36  34  43  56  63  73  81  74  78  86  83  77  77  83  86  85  91  95  77  62  60  66  68  59  59  59  64  80  87  84  86  78  70  66  76  85  83  81  73  68  68  62  53  41  38  39  42
 29  21  23  23  25  24  23  26  36  42  48  43  39  46  36  36  37  40  39  37  41  47  61  73  57  61  66  68  79  79  78  87  80  81  92  76  61  60  61  61  60  60  61  71  82  84  79  79  80  77  68  71  84  88  89  86  80  76  69  62  49  38  37  40
 40  26  40  46  43  35  26  28  36  50  60  57  46  45  43  36  39  42  44  39  38  41  48  54  50  49  49  57  67  61  61  77  70  66  78  75  61  61  61  60  60  60  63  73  89  83  72  70  68  72  67  67  72  78  79  84  87  87  75  67  55  41  37  38
 47  34  53  69  63  42  38  44  39  39  53  63  56  46  44  39  40  44  46  45  41  41  43  44  45  47  48  50  53  53  55  63  60  59  62  65  61  62  62  62  59  64  71  70  87  82  73  72  63  56  64  72  59  57  66  76  79  92  81  67  60  48  37  36
 53  41  54  67  68  50  55  56  58  47  48  65  65  57  50  42  41  44  47  48  48  49  48  48  47  49  51  51  53  57  56  56  58  59  61  62  63  63  64  62  64  74  84  84  89  87  74  69  60  54  66  79  69  51  49  60  64  80  87  73  66  55  41  36
 57  54  62  69  71  62  66  65  72  63  49  70  78  67  57  42  44  46  47  50  51  52  51  50  49  50  53  55  54  58  60  60  60  62  64  65  66  66  65  67  77  87  93  94  82  82  76  64  53  54  69  79  70  56  47  44  51  60  81  85  71  65  52  38
 70  71  74  80  84  82  74  75  89  71  50  67  84  77  62  43  42  54  51  49  52  55  53  51  51  53  54  57  58  58  62  63  63  65  66  67  68  68  65  69  83  81  76  81  79  70  67  57  46  56  68  75  69  64  56  43  43  55  77  88  83  74  60  47
 78  78  83  86  88  91  85  88  90  70  58  72  89  77  56  44  41  50  62  56  52  57  56  56  58  58  60  62  63  63  66  66  67  68  70  70  70  71  68  67  82  79  67  65  72  60  60  50  42  53  66  72  75  68  63  51  39  49  63  80  79  67  59  49
 69  74  82  77  73  81  90  84  83  83  81  84  89  69  58  56  44  42  60  68  57  58  59  59  66  67  66  68  68  68  70  71  71  72  73  73  73  74  80  75  85  78  67  55  59  51  52  44  37  48  59  69  73  72  65  52  41  43  60  75  75  64  51  42
 67  77  77  69  65  71  82  79  76  83  79  79  79  81  76  58  48  44  55  72  60  60  62  62  69  80  73  74  72  73  74  76  76  76  77  78  77  82  92  93  90  78  64  48  43  42  42  40  35  48  59  61  63  68  67  61  47  39  48  65  74  63  50  41
 64  73  71  63  59  64  73  71  65  68  62  61  66  77  83  62  65  53  55  76  65  62  65  65  73  82  75  79  77  79  81  82  81  81  82  83  82  82  87  80  74  62  46  38  35  31  30  29  33  50  53  52  61  69  75  69  55  40  36  56  71  57  43  35
 55  60  66  62  56  60  67  60  50  52  56  64  71  78  82  79  75  59  61  83  69  65  69  69  76  83  81  84  83  85  89  88  87  87  87  87  86  84  82  71  59  47  45  49  39  34  36  29  27  38  46  53  59  69  75  67  58  42  30  40  52  45  32  37
 39  45  54  59  51  50  58  47  47  59  64  74  80  74  70  80  83  73  64  76  67  69  73  75  77  83  87  89  90  93  98  98  95  95  94  93  90  89  87  79  59  49  62  61  39  49  51  35  25  35  49  55  63  73  76  68  56  40  28  27  33  30  31  41
 20  25  34  40  35  40  43  38  50  63  71  70  66  58  63  73  89  86  76  78  72  72  76  80  82  86  92  95  99 105 109 110 107 104 102 101  96  93  90  76  65  68  73  60  47  65  60  41  26  30  49  54  62  72  73  65  49  36  36  33  23  28  34  40
 16  16  19  22  24  28  31  41  55  67  64  53  54  66  72  75  87  88  87  85  77  76  80  85  90  91  97 103 109 117 123 123 120 116 113 110 106  99 100  92  84  88  79  61  68  75  67  48  29  25  42  49  53  62  68  59  47  43  50  43  23  28  34  40
 33  27  20  19  21  22  30  51  61  61  49  47  59  70  80  74  72  71  73  75  80  81  83  89  96 100 104 112 121 131 139 142 137 133 129 121 115 109 104  96  94  94  80  74  83  73  58  48  32  23  33  37  44  55  67  66  57  57  53  44  28  22  32  43
 47  42  32  25  24  24  25  39  51  44  41  57  68  67  63  55  53  55  59  64  71  75  76  83  92 101 112 123 138 151 160 166 159 150 140 134 126 114 101  96  96  96  82  84  84  70  51  40  32  23  26  34  39  51  66  70  66  67  62  48  30  17  26  40
 50  48  41  40  39  33  25  26  31  33  36  49  55  50  45  45  47  50  55  58  64  71  79  88  99 106 113 131 152 169 181 185 180 168 159 148 130 115 104  97  94  95  85  73  70  61  50  38  28  22  24  32  41  48  61  71  74  72  67  48  37  23  22  35
 62  58  54  53  54  42  28  30  29  30  32  35  37  39  42  45  50  55  61  64  66  78  90  97 107 119 129 142 161 182 199 206 203 189 177 157 135 119 105  96  93  95  79  61  52  46  37  29  29  30  21  26  34  42  50  59  67  60  56  52  44  25  20  29
 71  63  66  66  60  40  35  46  39  44  39  35  36  43  51  56  64  69  67  71  77  84  92 100 110 123 141 154 172 196 219 228 225 207 185 163 142 123 107  96  93  89  71  56  42  34  33  38  44  40  29  20  28  36  43  58  63  56  49  44  41  21  19  27
 70  76  79  76  56  39  46  57  47  57  55  41  38  45  53  58  69  84  85  76  80  86  93  99 110 124 143 159 176 200 227 237 224 205 183 162 142 126 110  98  92  85  66  55  43  44  51  63  54  41  32  26  21  26  44  54  57  55  48  42  29  17  25  31
 75  81  88  68  48  41  57  70  57  70  67  47  40  50  51  55  60  78  90  81  82  87  96 103 111 122 137 155 173 193 213 222 212 188 169 152 131 117 107  98  90  84  81  73  59  61  64  72  54  45  42  34  22  20  33  42  50  53  41  37  26  16  30  36
 79  90  83  63  56  57  71  78  72  73  68  52  42  57  52  59  61  73  91  80  81  85  92  98 106 118 131 144 162 182 194 199 197 183 161 143 125 112 102  94  87  82  78  77  77  76  67  57  47  44  36  28  26  21  20  26  41  49  43  30  18  21  34  45
 77  90  87  81  80  80  81  78  75  70  65  52  43  60  55  64  75  77  89  77  80  83  88  96 103 111 121 133 152 168 176 181 176 170 157 138 122 110  99  92  87  81  76  73  78  79  62  49  44  39  36  36  28  22  20  20  32  46  43  31  16  27  40  54
 86  75  81  83  79  77  75  76  75  67  62  49  47  62  65  71  83  89  78  73  77  80  85  92  99 105 116 126 141 153 162 165 159 156 147 133 119 108 100  92  86  80  75  71  68  70  65  55  54  51  44  34  27  25  22  18  22  35  41  31  16  29  43  56
 77  61  70  80  71  71  69  71  75  70  66  51  50  57  60  62  70  79  72  69  73  77  83  90  95 100 108 115 126 137 144 151 144 139 135 124 113 101  94  89  85  79  73  70  67  64  63  62  60  51  38  32  33  25  21  22  17  18  27  21  15  33  44  55
 74  61  56  67  74  67  59  65  75  78  67  54  51  50  51  55  58  68  69  66  70  75  78  92  99  99 102 107 114 123 131 136 129 123 119 112 108 100  89  82  77  74  70  68  65  63  60  61  58  47  39  39  31  27  34  37  29  18  14  13  16  28  41  55
 74  72  57  50  57  60  51  62  71  72  68  72  70  57  52  53  54  59  63  63  67  70  76  94  90  93  96  98 104 111 118 120 110 106 104 101  98  95  90  84  74  70  67  65  63  61  59  59  59  49  45  40  30  35  44  43  34  23  17  13  18  27  38  48
 56  62  65  59  50  45  47  61  65  63  67  90  91  72  53  53  54  56  58  61  64  66  71  83  82  84  88  91  96  99 106 104  97  92  91  92  90  87  85  81  72  68  65  63  61  59  57  55  53  50  49  40  36  38  36  33  28  20  19  14  15  25  31  44
 44  45  55  65  54  42  45  51  52  56  69  96  94  65  52  53  54  55  57  59  62  63  63  69  75  77  80  83  87  90  98  92  88  82  83  83  83  80  75  71  70  67  64  61  59  58  56  54  52  52  48  43  44  42  36  29  28  25  17  12  13  20  29  46
 51  43  41  47  45  37  40  47  54  61  64  86  79  57  52  53  54  54  55  57  59  59  60  65  69  72  75  77  80  83  90  86  78  76  75  75  75  75  70  68  67  65  63  59  57  56  55  54  53  52  48  49  50  46  38  35  30  24  17  10  13  26  34  43
 55  48  40  34  34  31  42  60  56  54  46  54  64  68  64  55  53  52  53  56  56  56  57  61  66  69  71  72  73  76  80  84  78  71  69  68  67  67  68  65  63  62  60  58  56  54  53  52  51  50  51  55  56  49  45  38  35  26  17  12  14  28  37  40
 56  53  48  39  31  27  39  52  41  39  38  38  43  56  65  51  49  50  51  52  54  57  58  61  63  65  67  68  68  71  73  78  79  75  66  64  61  64  67  63  59  59  58  55  53  52  51  50  49  48  49  58  55  52  49  47  39  29  22  15  11  22  33  34
 49  46  43  41  35  26  37  37  32  31  34  37  39  42  48  46  46  48  49  49  53  58  59  60  60  61  62  62  64  66  65  71  77  75  63  59  58  60  64  59  57  57  56  53  51  50  50  49  48  45  43  54  50  53  57  50  37  28  20  18  12  14  25  23
 37  39  34  30  26  24  32  28  29  32  35  37  39  40  41  43  46  47  47  47  51  54  57  60  57  56  57  58  60  61  60  64  70  71  62  57  60  52  56  54  53  54  54  52  49  49  49  48  46  45  39  44  43  52  59  48  37  27  19  17  14   8  12  17
 29  28  23  22  22  27  30  27  28  42  56  52  49  49  48  46  45  45  45  46  50  53  63  70  56  54  54  55  55  56  57  57  61  66  55  54  53  49  49  51  51  52  52  49  48  47  47  46  44  44  39  34  38  50  54  41  33  26  27  20  13   8  13  23
 26  19  18  30  30  28  34  28  27  48  66  62  63  65  63  54  55  48  51  58  59  62  72  74  63  52  52  52  51  51  53  51  50  58  50  47  45  46  47  47  49  51  50  49  47  44  45  44  41  42  39  34  32  44  47  39  35  36  32  23  15   9  19  22
 22  16  18  26  32  27  30  23  26  44  63  58  60  71  75  71  68  63  68  63  61  68  70  72  65  53  49  48  48  47  51  47  41  43  45  46  44  44  45  47  50  52  51  51  47  43  41  41  38  39  37  34  30  35  40  45  45  41  33  23  12   8  15  18
 24  17  16  18  20  21  20  20  26  41  54  52  55  64  72  77  69  65  63  59  58  64  65  67  62  47  46  46  44  43  48  45  40  40  43  43  45  49  45  50  60  57  55  52  51  48  44  40  37  35  35  32  29  28  35  48  48  39  31  19  11   9   9  14
