P2
#.
64 64
255
 28  30  33  33  35  34  40  44  41  31  23  19  21  27  23  20  21  23  27  34  39  47  47  60  68  71  70  63  50  58  89  97  75  59  81  83  52  41  51  73  92 111 120 107 101 106 100  84  80  87  91  77  74  62  46  67  90 109 120 105 104 103  91  82
 33  36  37  37  39  36  39  44  47  43  33  27  23  28  29  31  33  35  38  45  53  60  59  62  75  79  78  64  51  64  89 101  84  63  77  93  67  48  43  55  73  97 120 115 104 110 109  97  99 105 104  93  88  66  48  61  81  97 117 116 103  90  79  74
 37  41  41  40  42  41  39  44  48  52  46  36  28  35  35  37  46  51  50  54  65  72  70  68  82  87  82  64  52  72  94 106  93  70  78  95  86  69  51  44  56  78 101 113 111 115 122 113 114 119 113 106  88  65  53  61  84 101 116 110  95  82  78  79
 44  48  48  46  47  46  41  47  51  54  52  41  32  40  45  39  44  56  59  61  70  78  77  73  85  87  86  65  52  73 108 114 100  77  87  94  92  83  65  48  47  62  74  84  90 102 108 105 102 105  96  87  76  64  59  66  91 113 111  97  88  89  96  94
 55  61  60  52  51  49  43  44  47  51  50  42  36  45  52  46  41  51  60  65  73  82  81  76  88  95  88  64  50  69  97 117 100  87  98 111 108  93  80  61  46  49  53  60  68  78  81  80  78  79  73  66  69  69  65  72  97 119 119 107 103 103 101  94
 54  61  67  60  58  56  51  46  50  53  50  43  39  49  57  46  41  50  59  66  74  86  85  78  86 100  96  73  54  56  72  96 106 104 114 126 118 111 100  81  59  47  47  50  54  59  62  61  61  61  60  59  68  70  68  77  99 116 114 108 103 100  94  87
 50  56  70  67  66  64  58  52  55  58  52  43  42  52  54  45  44  51  61  67  73  86  90  87  88  95  97  71  66  62  61  82 105 112 120 132 119 123 116  98  77  55  48  51  55  53  54  54  55  55  55  56  66  72  72  87  96 109 113  97  88  83  81  75
 48  52  65  62  69  69  65  62  64  63  54  44  42  56  57  48  45  56  63  69  77  85  94 101  98  87  82  72  83  81  68  87 101 108 115 131 131 119 111 103  87  70  57  57  65  64  68  67  61  57  55  59  65  75  84 104 106 108 112  98  83  72  66  62
 44  48  57  55  61  61  64  69  73  66  61  50  43  53  58  48  46  55  70  69  75  81  90 104 103  92  79  78  96  96  74  80  96 102 107 125 132 118 114 112 105  89  77  75  89  90  97  94  85  66  54  60  69  81  94 114 124 118 100  86  76  68  65  65
 40  45  46  48  49  52  56  61  71  72  68  53  47  57  59  49  49  57  68  75  74  76  87 100 107 100  81  80 100 106  92  80  86  89  98 113 124 125 125 123 121 109  98  99 109 107 111 104  89  74  58  56  70  86  99 108 116 114  97  83  76  72  74  76
 41  43  50  55  53  59  65  66  66  77  75  55  50  60  55  48  54  65  65  77  82  79  88  91 101  99  86  83  93 102 109  99  89  98  97 107 117 118 121 125 117 113 110 107 105 102 100  91  83  74  61  56  70  93 105 110 117 109  90  82  79  79  83  89
 40  48  60  63  64  68  78  82  76  82  77  54  55  60  51  51  67  78  68  76  90  89  91  91  99 102  98  97 101 109 122 120 104 107 111 112 112 110 124 133 125 120 123 114 107 108  97  85  77  70  61  61  71  91 104 114 122 107  96  91  89  88  87  85
 38  42  51  60  65  68  79  86  85  84  73  57  60  56  54  52  68  84  72  77  92  96  97 100  99  92  87  86  92 101 114 127 116 111 108 110 102  98 107 121 134 133 123 109 113 109  93  84  81  77  65  65  74  90 106 118 119 108  98 100  97  88  80  76
 45  46  44  52  53  56  63  72  74  79  84  70  61  61  63  57  70  86  82  80  90  95  98 102  84  70  62  57  60  69  87 105  96  90  79  80  85  86  91  98 111 124 119 116 112 102  95  94  91  74  63  70  83  84  96 111 109 104  89  87  86  82  76  70
 54  58  56  50  50  52  55  59  70  85  84  71  64  67  69  64  71  84  91  90  92  91  92  87  66  50  44  43  44  50  63  83  81  73  84  83  86  87  92 100 108 124 134 130 122 116 108 107  91  70  66  83  95  83  87 102  94  96  90  81  78  76  73  73
 69  70  72  67  64  70  73  70  72  87  81  73  66  64  66  68  71  78  87  92  89  84  78  67  50  42  46  49  57  58  52  61  66  77  91 103 107 114 121 124 125 134 133 124 113 112 109 102  85  69  72  93  93  81  87  97  83  82  91  87  82  78  80  83
 72  72  75  80  79  86  89  85  85  87  86  75  70  65  61  62  68  75  80  83  81  72  59  46  44  52  65  71  80  81  71  65  74  91 100 107 123 128 126 125 130 133 125 117  97  97  98  87  83  75  78  89  87  81  86  94  76  83  96  90  85  86  87  87
 61  61  67  79  91  92  85  81  85  79  85  73  68  65  58  57  66  72  75  77  66  54  45  42  49  67  77  82  91 100  90  92  98 108 120 121 126 117 108 113 108 118 120 116  96  89 106 101  93  81  81  95  88  73  79  89  72  78  96  90  81  89  89  87
 49  57  70  86  91  79  71  73  76  70  83  79  68  60  53  54  62  67  68  62  50  43  42  44  58  77  86  92  98 108 103 111 117 119 113 115 110  95  96 105  97 112 117 103  86  89 115 112  91  81  84  94  80  70  75  86  73  68  85  87  78  82  87  85
 49  61  74  94  89  73  57  70  66  66  77  79  71  63  51  48  56  64  58  46  43  43  47  60  74  85  91  95  95  98 105 114 127 116 105 101  91  79  91 104  94 107 109  92  75  89 114 115  99  83  78  82  78  72  66  71  71  61  73  85  79  73  84  84
 49  63  77  92  80  64  47  62  62  54  66  70  64  56  47  43  52  58  48  43  43  48  65  74  78  81  81  82  81  90 100 109 121 115 109  97  79  74  88 100  87  91  93  77  71  89 112 105 102  94  83  78  81  74  56  50  52  51  56  70  65  67  82  81
 49  58  65  75  73  55  37  51  56  41  49  63  54  41  41  42  48  49  43  43  48  63  68  62  59  61  63  72  84  93 100 109 111 119 114  98  78  72  84 100  85  77  75  71  77  98 109 105  94  89  84  78  72  62  51  50  44  42  44  49  52  68  77  74
 39  43  52  56  61  53  33  35  36  33  39  50  39  37  40  41  44  45  43  45  52  52  49  51  54  56  58  61  68  80  88  97 102 110 102  92  74  71  85  99  81  72  72  72  82  94  96  98  90  88  83  76  75  67  64  70  61  48  41  41  45  57  62  62
 29  33  38  39  38  33  30  30  30  32  33  35  35  37  40  41  42  45  45  45  46  52  60  68  72  73  75  73  65  67  74  81  91  98  97  86  74  71  79  91  76  72  72  73  76  79  84  91  84  85  84  77  79  77  80  81  76  61  44  41  41  44  49  57
 23  24  26  29  28  28  30  30  30  32  32  34  35  37  39  41  41  44  46  44  54  71  79  85  84  86  89  88  76  73  79  80  87  95 101  91  75  71  75  80  72  72  72  72  79  79  84  90  78  75  77  84  82  81  85  77  66  61  57  51  41  41  45  51
 24  24  25  26  27  28  29  29  30  31  34  35  38  40  40  42  42  43  45  50  61  69  80  88  83  86  94  91  84  84  89  91  93 100 103  85  72  72  74  74  72  72  72  72  85  93  91  93  83  75  72  82  90  88  86  77  70  71  66  56  43  40  41  45
 33  27  27  27  29  29  29  30  38  44  49  46  43  49  42  42  43  43  45  49  51  54  68  79  73  73  75  78  87  86  86  94  89  91 101  84  72  72  72  72  72  72  72  76  87  90  85  86  87  82  73  77  92  95  97  92  84  80  73  64  50  40  40  43
 46  31  43  48  46  38  30  31  39  55  64  60  49  49  47  42  43  45  47  49  49  51  57  62  65  65  65  69  76  74  74  86  83  80  88  83  72  72  72  72  72  72  72  77  96  90  78  75  75  78  72  72  80  87  87  91  94  92  79  71  57  43  39  40
 54  39  59  74  69  47  40  46  41  44  59  68  60  49  47  44  44  47  49  50  50  51  52  55  61  62  63  65  67  70  72  75  76  77  76  75  72  72  72  72  72  73  75  76  94  88  78  77  68  61  68  76  64  64  73  84  88  99  86  71  63  49  39  39
 60  46  59  72  74  55  58  60  62  50  53  68  68  60  53  47  47  49  50  52  53  53  54  55  59  62  64  66  67  70  70  72  74  75  73  72  72  72  72  72  72  80  91  91  97  94  80  75  65  58  71  84  74  55  55  67  72  90  93  77  70  57  42  38
 64  60  67  75  76  67  70  70  76  67  55  76  83  72  62  46  47  50  52  54  56  58  58  57  60  62  65  67  68  72  72  72  76  76  74  73  73  72  72  74  82  94 101 102  89  90  82  70  58  58  75  86  76  60  50  49  56  68  89  88  74  66  52  38
 75  76  80  87  90  89  81  82  96  79  57  74  90  82  68  47  46  58  54  54  56  60  61  61  61  63  67  69  70  73  75  75  77  77  76  75  75  73  71  77  91  90  83  87  86  76  73  62  50  61  73  81  74  67  59  46  47  59  84  95  88  79  63  47
 84  85  90  92  95  98  92  95  97  76  63  77  95  83  61  48  44  54  66  60  57  62  64  65  66  66  69  72  73  75  78  79  79  79  78  78  77  78  75  75  89  86  73  70  77  65  65  54  45  57  71  78  81  74  67  54  42  52  68  86  85  72  63  52
 74  80  88  82  79  87  97  91  89  89  87  91  96  73  62  60  46  45  65  73  62  64  65  65  73  73  73  75  75  76  78  79  81  81  81  80  79  82  87  83  93  84  72  59  63  54  56  47  39  52  64  73  78  78  70  56  43  46  65  81  80  68  54  45
 72  82  83  74  69  77  88  84  82  89  85  85  85  87  82  62  52  47  59  77  65  64  67  67  77  86  80  81  78  81  82  81  82  82  84  84  84  90 100 101  97  84  68  51  46  45  45  42  38  52  64  65  67  73  72  65  50  42  51  69  79  68  53  44
 68  79  77  68  63  68  78  76  70  74  66  65  71  83  88  66  69  57  59  82  70  67  71  72  80  89  83  86  84  85  87  85  85  87  88  90  89  91  95  88  81  68  49  41  38  34  32  30  35  54  56  57  65  74  80  74  58  43  38  59  76  61  46  37
 59  65  71  66  60  64  72  64  53  55  60  69  77  84  89  85  80  64  66  88  74  70  75  76  82  90  87  91  90  91  96  94  92  94  94  94  93  92  90  79  65  51  49  53  42  36  39  31  28  41  49  57  63  74  81  72  62  45  32  43  56  48  34  39
 42  48  57  64  54  54  62  50  50  63  69  80  86  80  75  86  89  78  69  82  73  75  79  81  84  90  94  96  98 101 106 105 102 102 101 100  98  97  96  88  65  53  67  65  41  52  55  38  26  37  52  59  68  79  81  73  60  43  30  28  35  32  33  44
 20  27  37  43  38  43  47  40  53  68  76  75  71  63  67  79  96  92  82  84  78  78  83  88  90  93 100 103 107 113 119 117 115 111 110 110 104 100  98  86  72  76  80  65  50  70  64  44  28  32  52  58  67  77  78  70  52  38  39  35  24  29  36  42
 17  17  20  24  25  30  32  44  58  72  69  57  58  71  78  80  94  94  93  92  84  83  88  93  98  99 106 112 118 126 128 123 124 124 122 120 114 107 109 101  92  97  87  66  72  81  71  51  31  27  45  53  57  66  73  63  50  46  53  45  24  30  37  43
 35  29  21  20  22  23  32  55  65  65  53  50  63  76  85  80  77  76  78  81  87  89  90  96 103 108 112 121 132 139 132 129 130 140 140 131 124 118 112 105 103 102  87  80  88  79  63  52  34  24  35  39  48  59  72  71  61  61  56  46  30  23  34  46
 51  45  34  27  26  25  26  41  54  47  43  61  73  72  67  59  57  58  63  69  76  81  82  89  99 109 121 134 150 156 142 136 136 153 153 145 137 124 109 104 104 105  90  90  90  75  55  43  34  24  28  36  42  54  71  76  71  72  67  52  32  18  28  42
 53  51  44  42  41  35  26  28  33  35  38  52  60  53  48  48  50  54  59  62  68  78  86  95 107 114 122 142 166 177 157 141 141 160 174 160 141 125 112 105 102 103  92  78  75  66  53  40  29  23  25  34  44  51  66  76  80  77  72  52  40  24  23  37
 67  62  58  57  58  45  29  31  31  32  34  37  40  42  45  48  54  59  65  68  72  87 100 105 116 129 140 153 174 193 162 145 150 172 192 170 146 128 113 104 101 103  86  65  55  48  39  30  31  32  23  28  37  45  54  63  72  64  59  55  47  27  20  31
 77  68  71  71  64  42  37  50  41  47  41  38  38  46  55  60  69  73  72  76  85  94 102 109 119 134 153 167 188 196 162 153 158 189 201 177 154 134 115 104 101  96  77  59  45  36  36  41  47  43  30  20  30  38  46  63  68  60  52  47  45  22  20  28
 75  81  85  81  60  42  49  62  50  61  59  43  40  48  57  63  74  90  92  82  88  94 101 108 119 135 155 173 193 196 164 155 159 195 201 176 154 136 119 106  99  92  72  59  46  47  54  68  58  44  34  27  22  27  47  57  61  59  51  45  31  18  26  32
 80  87  94  73  51  43  61  75  61  75  72  50  43  54  54  59  64  83  97  87  89  94 103 112 121 132 150 169 188 207 195 175 181 201 186 165 142 126 116 106  97  90  87  78  63  65  69  78  59  48  45  36  23  22  36  44  54  56  44  39  27  17  31  39
 86  97  89  68  60  61  76  83  77  78  73  55  45  61  55  64  65  78  97  86  88  92 100 106 115 128 142 157 176 198 211 212 210 200 176 154 135 120 110 101  93  88  85  82  83  82  72  61  50  47  38  30  28  22  21  27  44  53  46  32  19  22  37  48
 83  96  93  87  86  86  87  84  81  75  69  56  46  65  59  69  80  83  96  83  86  89  95 103 111 120 130 144 165 182 191 197 191 184 170 149 132 118 107 100  93  87  82  78  84  85  67  52  47  42  38  39  30  23  21  21  35  49  46  33  16  28  42  58
 92  80  87  88  85  83  80  82  81  72  66  52  50  67  69  76  89  96  84  78  83  86  92 100 107 114 125 136 152 166 174 178 172 168 158 143 129 117 107  99  92  86  81  76  74  75  70  59  58  54  47  36  28  26  23  18  22  37  44  33  17  31  45  60
 82  66  76  86  76  76  74  77  81  76  70  54  53  62  64  66  75  85  77  75  78  83  89  97 103 108 117 125 137 148 156 163 156 150 146 135 122 109 101  96  92  86  79  75  72  68  67  66  64  55  41  34  35  26  22  23  18  18  29  23  16  35  47  59
 79  66  60  71  80  72  63  70  80  83  72  58  54  53  55  60  62  73  74  71  75  80  86 101 108 106 110 115 123 133 142 147 139 133 129 121 116 108  96  89  84  80  76  73  70  67  65  66  62  50  41  42  33  28  37  40  31  19  14  13  16  30  44  59
 80  77  61  53  61  65  54  67  77  77  72  77  75  60  55  56  58  64  67  68  72  76  84 104  99 100 104 106 113 120 128 130 119 115 113 109 105 103  97  90  80  76  73  70  68  65  63  64  63  52  48  43  32  37  47  46  36  24  18  13  19  28  41  51
 60  66  70  64  53  49  50  66  70  68  72  97  98  77  56  56  59  60  63  66  68  71  80  91  89  90  95  99 104 107 115 113 105 100  98 100  97  94  92  88  78  73  70  67  65  64  62  60  57  53  52  43  38  40  39  35  29  22  20  14  16  26  33  47
 47  48  59  70  58  45  48  55  55  60  74 103 101  69  55  56  58  60  61  63  66  68  69  75  82  84  86  90  94  98 106 101  97  89  89  90  89  86  81  77  75  73  70  65  63  62  60  58  56  56  51  45  47  44  38  31  30  27  18  13  13  21  31  49
 55  46  43  50  48  39  43  50  58  65  69  93  85  61  56  56  58  58  59  61  63  65  66  70  75  78  81  84  86  90  97  93  86  82  81  80  81  81  76  73  71  70  67  64  62  60  59  57  56  55  52  52  54  50  41  37  32  26  18  11  14  27  36  46
 59  52  42  36  36  33  45  65  60  58  49  58  69  74  69  58  56  55  58  60  60  62  64  66  71  75  77  79  80  82  86  91  86  78  75  74  74  74  74  70  68  66  65  62  60  59  56  56  54  53  54  59  60  52  48  41  37  27  18  13  14  30  39  42
 60  57  51  42  33  29  42  56  43  42  40  40  46  60  70  55  52  53  54  55  58  62  64  66  69  71  73  74  74  77  79  85  87  82  72  68  65  69  73  68  64  64  62  60  57  56  55  53  52  51  52  62  59  56  53  50  42  30  23  15  11  23  35  36
 52  49  46  44  37  27  39  40  35  34  36  40  41  45  51  49  50  51  52  52  58  63  63  64  65  66  67  67  68  72  71  78  83  80  68  64  63  65  69  64  61  61  61  57  55  54  54  52  51  48  46  58  53  56  62  53  40  29  21  19  12  14  27  24
 39  41  37  32  27  26  34  29  31  34  38  40  41  43  45  47  49  50  51  51  55  59  62  65  62  61  61  63  64  65  65  69  75  76  68  62  66  57  60  59  57  59  59  55  53  52  52  51  49  48  42  47  46  55  64  51  39  28  19  17  14   9  12  18
 30  29  25  23  23  29  32  28  29  45  60  55  53  53  52  49  48  49  49  49  54  57  68  76  61  58  59  60  60  60  61  61  65  70  61  58  57  52  53  55  55  56  56  52  51  50  51  50  47  47  42  37  40  54  58  44  35  27  28  21  13   8  13  24
 27  20  18  32  32  30  36  29  29  52  71  66  68  70  68  58  59  52  55  63  64  68  77  79  68  56  56  56  57  55  57  55  54  63  55  51  48  50  50  52  53  54  55  53  51  48  48  47  44  45  42  37  34  46  51  42  37  38  34  24  15   9  20  24
 23  17  18  28  34  28  32  24  28  47  67  62  64  77  80  76  73  68  73  67  66  75  76  77  70  58  52  52  51  50  55  50  44  47  48  49  47  49  49  51  54  56  55  55  50  46  44  44  40  41  39  36  31  37  43  48  48  43  35  24  13   8  15  19
 25  17  16  19  21  22  21  21  27  44  58  56  59  69  78  83  74  69  67  63  62  69  70  72  68  52  48  49  47  46  51  48  43  42  47  47  51  53  49  54  65  62  60  56  54  51  47  42  39  38  37  35  31  29  37  52  51  41  33  20  12   9   9  14
